<svg width="115" height="43" viewBox="0 0 115 43" fill="none" xmlns="http://www.w3.org/2000/svg">
<path d="M42.8581 10.937L39.7341 10.1516L40.3397 10.9183L38.4857 11.1853C38.3806 11.0518 38.1798 10.9866 37.945 10.968C37.9357 10.9463 37.9264 10.9246 37.9202 10.9059C37.6545 10.3006 37.3269 9.7388 36.9809 9.2018C36.2825 8.12779 35.4637 7.18726 34.6417 6.28708C34.2307 5.83699 33.8167 5.39932 33.4181 4.95233C33.0195 4.50845 32.6332 4.05526 32.3057 3.57413C32.1357 3.33511 31.9967 3.08058 31.8669 2.82294L31.7865 2.62428L31.7464 2.52495L31.7155 2.42252L31.6537 2.21454L31.6166 2.00347C31.5177 1.43232 31.6846 0.83013 31.9936 0.311751C31.8113 0.550764 31.632 0.805298 31.5301 1.10018C31.4652 1.24297 31.4343 1.39507 31.3972 1.55027C31.3786 1.62788 31.3786 1.70548 31.3694 1.78618C31.3601 1.86378 31.3539 1.94449 31.357 2.0252L31.3632 2.26421L31.3972 2.50012C31.3972 2.51874 31.4034 2.53426 31.4065 2.55289L25.5231 10.9152C25.4056 10.9214 25.2913 10.9277 25.1801 10.937C25.4922 10.7135 25.2697 10.1547 25.5879 10.043C25.9186 9.92815 25.6961 9.53393 25.6961 9.53393C25.9 9.47806 25.591 8.90381 25.591 8.90381C26.0514 8.86345 26.6293 8.35439 26.3419 8.26437C26.0545 8.17746 25.4087 7.12828 25.6621 6.32122C25.9155 5.51417 25.486 4.82196 25.486 4.82196C26.5428 5.30309 26.7467 4.30358 26.7467 4.30358C25.8475 4.73815 25.4582 4.20425 25.4582 4.20425C26.2832 4.14217 26.2523 3.60827 26.1071 2.99677C25.9618 2.38527 25.2264 2.4877 25.2264 2.4877C25.2264 2.4877 25.1955 1.9538 24.8247 1.39817C24.4539 0.842546 23.8637 1.24297 23.8637 1.24297C23.8637 1.24297 23.7772 0.38004 22.8533 0.078946C21.9294 -0.222148 21.5338 0.504203 21.5338 0.504203C21.5338 0.504203 20.4307 -0.38356 19.1391 0.196901C17.8474 0.777361 17.9587 1.79549 17.9587 1.79549C16.185 1.64029 16.2128 3.09299 16.2128 3.09299C15.6782 3.68277 16.3673 4.2446 16.3673 4.2446C16.3673 4.2446 15.5114 4.11113 15.394 5.3093C15.2765 6.50747 16.0181 6.64094 16.0181 6.64094C15.4249 7.72116 16.4693 8.14021 16.4693 8.14021C16.3488 9.77605 17.696 9.59291 17.696 9.59291C17.9 9.93436 17.7176 10.4248 17.6497 10.5831C16.1788 9.85986 14.1672 8.10606 13.2958 5.68179C12.4646 3.37236 9.69595 4.89025 6.78514 8.92864C6.19804 9.74191 7.08488 10.7662 7.83266 10.2572C7.5113 10.7042 7.18994 11.1977 6.86548 11.7347C6.3649 12.5697 7.37225 13.4947 8.02733 12.7994L8.82456 11.9551L8.39814 12.7187C7.95317 13.5133 8.84928 14.3887 9.51673 13.8113L10.2552 13.175L10.0204 13.7834C9.69286 14.637 10.6848 15.3541 11.2719 14.6867L11.5222 14.4011C11.4387 15.264 12.4615 15.6738 12.9096 14.9567L13.0672 14.7022L13.0332 15.264C12.9961 15.8538 13.4812 16.2263 13.9293 16.1425C13.9107 16.2915 13.9107 16.4405 13.9355 16.5895C14.0065 17.0054 14.2445 17.3593 14.5936 17.6293C14.5627 17.7535 14.538 17.8746 14.5226 17.9894C14.1796 20.4385 12.2329 20.6186 11.3615 22.0402C10.8269 22.9094 10.4932 24.0454 11.0154 25.2002C10.3294 26.0289 9.63106 27.1557 9.68977 28.2484C9.68977 28.2484 9.52909 27.432 8.17256 26.8236C6.81604 26.2121 5.81797 27.2147 5.07636 26.2617C4.33784 25.3088 3.41393 25.5137 2.97205 26.3456C2.53018 27.1774 0.280642 27.8697 0.404243 28.6177C0.404243 28.6177 -0.232302 28.925 0.0921505 29.3255C0.416603 29.7259 0.920277 29.2696 0.920277 29.2696C0.920277 29.2696 0.938817 30.1915 1.63098 30.0549C2.32315 29.9183 3.3614 28.4408 4.63758 28.9592C5.91685 29.4776 8.43831 33.429 10.453 33.308C12.2298 33.2024 15.4496 29.6421 16.2313 28.2266C16.7536 29.3813 17.8351 31.3245 19.3924 31.8211C19.3924 31.8211 18.4685 31.6628 17.282 32.8579C16.0954 34.053 16.7474 35.5181 15.4465 35.9216C14.1456 36.3251 13.9911 37.3867 14.6863 38.1907C15.3847 38.9946 15.2086 41.661 16.0429 41.8348C16.0429 41.8348 16.1108 42.6357 16.664 42.4495C17.2171 42.2663 16.9359 41.5462 16.9359 41.5462C16.9359 41.5462 17.9154 41.8969 18.0514 41.1085C18.1873 40.3201 17.0471 38.6221 18.107 37.4705C19.1669 36.3189 24.3427 35.2325 25.0256 33.0441C25.7085 30.8558 22.467 24.9084 21.608 24.4986C24.1542 22.7697 24.4323 18.2284 24.4323 18.2284C24.9452 17.7597 25.2573 17.1079 25.4304 16.3908L35.3555 25.3957C35.3555 25.5106 35.3555 25.6223 35.3555 25.7372L35.3771 25.9762C35.3833 26.0538 35.3926 26.1345 35.4111 26.2121L35.4575 26.4449L35.5286 26.6746C35.5502 26.7522 35.5842 26.8236 35.6182 26.895C35.6522 26.9664 35.68 27.0409 35.7232 27.1061C35.8097 27.2395 35.887 27.373 35.9951 27.4879C36.1898 27.73 36.4432 27.91 36.6935 28.0776C36.23 27.6896 35.8777 27.1743 35.7819 26.6063L35.7479 26.3952L35.7387 26.1779V25.9638L35.751 25.7496C35.7881 25.4609 35.8345 25.1753 35.9179 24.8929C36.0693 24.3279 36.2856 23.7754 36.5143 23.2229C36.746 22.6703 36.9901 22.1178 37.2312 21.556C37.7101 20.4354 38.1736 19.2745 38.4795 18.0298C38.6309 17.4089 38.7545 16.7664 38.804 16.1083C38.8503 15.5496 38.8534 14.9816 38.8163 14.4073C39.2273 13.8144 38.9492 12.6877 38.7298 11.9148L40.4541 11.6664L40.0894 12.5759L42.8643 10.9401L42.8581 10.937ZM18.1873 9.17386C18.9537 9.80709 18.5149 10.8128 18.5149 10.8128C18.5149 10.8128 18.4932 10.8407 18.4593 10.8873C18.2337 10.8314 17.9772 10.7383 17.6991 10.6048C18.4994 10.3317 18.1873 9.17386 18.1873 9.17386ZM31.4404 2.75155L31.493 2.96573C31.5888 3.26682 31.7031 3.56481 31.8452 3.84418C32.1203 4.40912 32.454 4.93371 32.7908 5.44277C33.1307 5.95184 33.4799 6.45159 33.8167 6.94825C34.4934 7.94155 35.1269 8.94106 35.6058 9.98092C35.7387 10.2696 35.8592 10.5614 35.9673 10.8532C35.2134 11.0767 34.7653 11.5609 34.6139 11.7533L34.2524 11.8061C33.5169 11.6633 32.5034 11.0084 31.5517 10.8438C30.4609 10.6545 28.4617 11.3715 28.4617 11.3715C27.4667 10.9991 26.5057 10.8997 25.7023 10.9121L31.4404 2.75776V2.75155ZM36.9654 16.068C37.0025 16.6205 36.9778 17.1855 36.9252 17.7535C36.8171 18.8927 36.5452 20.0474 36.2362 21.2083C36.0817 21.7888 35.9148 22.3755 35.7634 22.9683C35.612 23.5643 35.4729 24.1696 35.3957 24.7904C35.3771 24.9239 35.3679 25.0605 35.3586 25.1971L25.4674 16.2201C25.4891 16.1177 25.5076 16.0152 25.5261 15.9097C26.9877 15.919 28.6162 15.3447 29.1909 15.1181C29.8923 14.8419 30.2693 15.4037 31.3539 15.3696C32.4385 15.3354 34.8426 14.2459 34.8426 14.2459C35.3153 14.6153 36.023 14.8605 36.8171 14.904C36.8882 15.2827 36.9376 15.6707 36.9623 16.0618L36.9654 16.068Z" fill="#FF5069"/>
<path d="M30.6253 39.2261C29.9219 39.2261 29.3015 39.1426 28.7673 38.9823C28.2331 38.8187 27.7786 38.5181 27.4037 38.084C27.0288 37.6498 26.7501 37.0253 26.5609 36.2137C26.3718 35.4021 26.2756 34.3501 26.2756 33.051C26.2756 31.7518 26.3751 30.7733 26.5742 29.9717C26.7733 29.1702 27.0653 28.549 27.4435 28.1082C27.8217 27.6673 28.2829 27.3601 28.8237 27.1864C29.3645 27.0127 29.975 26.9259 30.6585 26.9259C31.1993 26.9259 31.7069 26.956 32.1747 27.0161C32.6458 27.0762 33.0705 27.1463 33.4488 27.2298C33.827 27.31 34.1455 27.4001 34.4076 27.5003V29.3806C34.2119 29.3372 33.9498 29.2938 33.6213 29.2504C33.2895 29.2069 32.9146 29.1702 32.4932 29.1435C32.0719 29.1168 31.6273 29.1034 31.1628 29.1034C30.6983 29.1034 30.32 29.1568 30.0015 29.257C29.683 29.3606 29.4275 29.5509 29.2384 29.8281C29.0493 30.1053 28.9066 30.5061 28.8171 31.0304C28.7242 31.5548 28.6777 32.2327 28.6777 33.0744C28.6777 33.916 28.7175 34.5438 28.8005 35.0682C28.8834 35.5925 29.0128 35.9966 29.1986 36.2872C29.3811 36.5744 29.6333 36.7781 29.9518 36.8917C30.2703 37.0052 30.6751 37.062 31.1595 37.062C31.9823 37.062 32.6492 37.0453 33.1634 37.0119C33.6777 36.9785 34.0924 36.9418 34.4043 36.8983V38.7619C34.1123 38.8588 33.7772 38.9456 33.399 39.0157C33.0208 39.0859 32.6027 39.1426 32.1482 39.1794C31.6936 39.2161 31.186 39.2362 30.622 39.2362L30.6253 39.2261Z" fill="#333333"/>
<path d="M38.4478 39.2262C37.6682 39.2262 37.0577 38.9958 36.6131 38.5315C36.1685 38.0673 35.9462 37.4127 35.9462 36.5611V30.3525H38.3483V35.843C38.3483 36.334 38.4644 36.6613 38.6967 36.8316C38.9289 37.0019 39.2342 37.0854 39.6124 37.0854C39.9143 37.0854 40.2262 37.0287 40.5447 36.9151C40.8632 36.8016 41.1486 36.6446 41.3974 36.4509V30.3559H43.8161V39.1293H41.8188L41.3974 38.231C41.0092 38.4915 40.558 38.7252 40.0504 38.9256C39.5427 39.126 39.0052 39.2295 38.4445 39.2295L38.4478 39.2262Z" fill="#333333"/>
<path d="M45.6372 43V30.3558H47.6511L48.0393 31.1874C48.245 31.0237 48.4707 30.8701 48.7195 30.7231C48.9683 30.5762 49.2404 30.456 49.5324 30.3625C49.8243 30.2689 50.1329 30.2222 50.458 30.2222C50.9889 30.2222 51.4501 30.3257 51.8449 30.5328C52.2397 30.7398 52.5615 31.0404 52.8104 31.4312C53.0592 31.8219 53.2417 32.2995 53.3611 32.8606C53.4806 33.4216 53.5403 34.0495 53.5403 34.7475C53.5403 35.6826 53.4474 36.4909 53.2649 37.1655C53.0824 37.8401 52.7639 38.3544 52.316 38.7084C51.8681 39.0625 51.2477 39.2395 50.458 39.2395C50.0466 39.2395 49.6286 39.1894 49.2006 39.0925C48.7726 38.9957 48.3877 38.8521 48.0393 38.6684V42.9967H45.6372V43ZM49.6783 37.249C49.9272 37.249 50.1661 37.1822 50.3917 37.0453C50.6173 36.9083 50.7998 36.6612 50.9358 36.3005C51.0718 35.9398 51.1382 35.4255 51.1382 34.7475C51.1382 34.0696 51.0752 33.5786 50.9524 33.2046C50.8296 32.8305 50.6571 32.5633 50.4414 32.403C50.2258 32.2461 49.9703 32.1659 49.6783 32.1659C49.3432 32.1659 49.0347 32.2193 48.7527 32.3296C48.4707 32.4398 48.2318 32.5466 48.0393 32.6568V36.8215C48.255 36.9517 48.5105 37.0553 48.8024 37.1321C49.0944 37.2089 49.3864 37.2456 49.6783 37.2456V37.249Z" fill="#333333"/>
<path d="M55.4249 29.0634C55.1993 29.0634 55.0832 28.9532 55.0832 28.7361V27.1364C55.0832 26.9093 55.196 26.7924 55.4249 26.7924H57.2763C57.3725 26.7924 57.4488 26.8258 57.5019 26.8892C57.555 26.956 57.5849 27.0362 57.5849 27.133V28.7328C57.5849 28.9498 57.482 29.0601 57.2763 29.0601H55.4249V29.0634ZM55.133 39.126V30.3525H57.5351V39.126H55.133Z" fill="#333333"/>
<path d="M62.243 39.2261C61.5628 39.2261 60.9888 39.0825 60.521 38.7919C60.0565 38.5047 59.7081 38.0338 59.4726 37.3859C59.2403 36.738 59.1242 35.8864 59.1242 34.8277C59.1242 33.769 59.2237 32.8572 59.4261 32.1826C59.6252 31.508 59.9636 31.0104 60.4414 30.6964C60.9158 30.3792 61.5728 30.2222 62.4055 30.2222C62.807 30.2222 63.2018 30.2623 63.59 30.3458C63.9782 30.4293 64.3266 30.5228 64.6285 30.633V26.662H67.0472V39.1293H65.0167L64.6285 38.2943C64.446 38.468 64.2204 38.6283 63.955 38.7686C63.6895 38.9088 63.4108 39.0224 63.1189 39.1025C62.8269 39.1827 62.5349 39.2261 62.243 39.2261ZM63.0857 37.2824C63.4108 37.2824 63.7061 37.2289 63.9715 37.1187C64.237 37.0085 64.456 36.9017 64.6285 36.7914V32.3797C64.4128 32.3028 64.1839 32.226 63.9483 32.1526C63.7094 32.0757 63.4573 32.039 63.1852 32.039C62.7838 32.039 62.4619 32.1091 62.2197 32.2527C61.9775 32.393 61.8017 32.6602 61.6922 33.0443C61.5827 33.4317 61.5296 33.9894 61.5296 34.7175C61.5296 35.3921 61.5794 35.9198 61.6822 36.2938C61.7851 36.6679 61.951 36.9284 62.1766 37.0686C62.4022 37.2089 62.7075 37.2824 63.0857 37.2824Z" fill="#333333"/>
<path d="M68.1985 39.1293L71.9643 27.0395H75.0001L78.7659 39.1293H76.2675L75.5044 36.5978H71.4135L70.667 39.1293H68.1985ZM71.9809 34.4236H74.9338L73.4573 29.1134L71.9809 34.4236Z" fill="#333333"/>
<path d="M79.9662 39.1293V30.3558H81.8176L82.3683 31.6951C82.6835 31.291 83.0352 30.9503 83.4334 30.6664C83.8282 30.3825 84.296 30.2423 84.8368 30.2423C84.9562 30.2423 85.079 30.249 85.2018 30.259C85.3245 30.269 85.444 30.2924 85.5501 30.3258V32.8105C85.3876 32.7905 85.2184 32.7705 85.0392 32.7538C84.86 32.7371 84.6908 32.7304 84.5282 32.7304C84.213 32.7304 83.931 32.7671 83.6756 32.8373C83.4201 32.9074 83.1878 33.0109 82.9788 33.1478C82.7665 33.2848 82.5641 33.4618 82.3716 33.6789V39.136H79.9695L79.9662 39.1293Z" fill="#333333"/>
<path d="M86.8312 39.1293V30.3558H88.6825L89.2333 31.6951C89.5485 31.291 89.9002 30.9503 90.2983 30.6664C90.6932 30.3825 91.161 30.2423 91.7018 30.2423C91.8212 30.2423 91.944 30.249 92.0667 30.259C92.1895 30.269 92.3089 30.2924 92.4151 30.3258V32.8105C92.2525 32.7905 92.0833 32.7705 91.9042 32.7538C91.725 32.7371 91.5558 32.7304 91.3932 32.7304C91.078 32.7304 90.796 32.7671 90.5405 32.8373C90.2851 32.9074 90.0528 33.0109 89.8438 33.1478C89.6314 33.2848 89.4291 33.4618 89.2366 33.6789V39.136H86.8345L86.8312 39.1293Z" fill="#333333"/>
<path d="M97.4323 39.2094C96.719 39.2094 96.1052 39.1359 95.5975 38.989C95.0899 38.842 94.6752 38.5949 94.3567 38.2442C94.0381 37.8936 93.8059 37.4327 93.6599 36.8549C93.5139 36.2771 93.4409 35.5624 93.4409 34.7141C93.4409 33.8224 93.5139 33.0843 93.6599 32.4999C93.8059 31.9188 94.0381 31.4612 94.3567 31.1273C94.6752 30.7966 95.0932 30.5595 95.6075 30.4259C96.1218 30.289 96.7289 30.2222 97.4323 30.2222C98.1357 30.2222 98.7727 30.2923 99.2836 30.4359C99.7913 30.5762 100.206 30.8133 100.525 31.1473C100.843 31.4813 101.075 31.9388 101.221 32.5199C101.367 33.1044 101.44 33.8358 101.44 34.7175C101.44 35.5992 101.371 36.3172 101.228 36.8983C101.089 37.4828 100.86 37.9403 100.548 38.2776C100.233 38.6149 99.8211 38.8554 99.3069 38.9957C98.7926 39.1359 98.1689 39.2094 97.4323 39.2094ZM97.4323 37.2824C97.7243 37.2824 97.9698 37.2557 98.1722 37.2022C98.3746 37.1488 98.5338 37.0352 98.6599 36.8683C98.786 36.7013 98.8789 36.4408 98.9452 36.0934C99.0116 35.7461 99.0414 35.2886 99.0414 34.7208C99.0414 34.1531 99.0083 33.6821 98.9452 33.3415C98.8789 32.9975 98.786 32.7437 98.6599 32.5734C98.5338 32.4064 98.3746 32.2928 98.1722 32.2394C97.9731 32.1859 97.7276 32.1592 97.4323 32.1592C97.137 32.1592 96.9114 32.1859 96.709 32.2394C96.5099 32.2928 96.344 32.4064 96.2146 32.5734C96.0853 32.7437 95.989 32.9975 95.9293 33.3415C95.8696 33.6855 95.8397 34.1464 95.8397 34.7208C95.8397 35.2952 95.8696 35.7461 95.9293 36.0934C95.989 36.4408 96.0819 36.7013 96.2146 36.8683C96.344 37.0386 96.5099 37.1488 96.709 37.2022C96.9081 37.2557 97.1503 37.2824 97.4323 37.2824Z" fill="#333333"/>
<path d="M104.28 39.1293L101.974 30.3559H104.459L105.839 36.8917L107.561 30.3559H109.542L111.264 36.8917L112.515 30.3559H115L112.727 39.1293H110.066L108.507 33.7858L106.901 39.1293H104.287H104.28Z" fill="#333333"/>
</svg>
